# xmcd CD Database Entry
#
# Track frame offsets:
# 150
# 11724
# 23693
# 38003
# 47480
# 54690
# 67652
# 77354
# 89339
# 102562
# 120602
# 134405
# 149211
# 160533
#
# Disc length: 2342 seconds
#
# Revision: 1
# Processed by: cddbd v1.4PL0 Copyright (c) Steve Scherf et al.
# Submitted via: tcd 2.0b
#
DISCID=b109240e
DTITLE=Randall Hylton - The Essential Randall Hylton
DYEAR=1900
DGENRE=
TTITLE0=Backhoe Joe and Bushhog Bob
TTITLE1=The Lawyer and the Farmer
TTITLE2=The Mayor's Wife and Deputy Joe
TTITLE3=Chug-A-Lug
TTITLE4=Limehouse Blues
TTITLE5=Two Fat Guys in a Hudson Hornet
TTITLE6=Life Ain't Ever Gonna Get Me Down
TTITLE7=Smilin' Ray
TTITLE8=Brother Buzzard and the Chicken Hawk (The Lord'll Provide)
TTITLE9=Jonah
TTITLE10=Roscoe Thompson's 1950 GMC
TTITLE11=The Sheriff of Boone County
TTITLE12=If That's Alright
TTITLE13=Mississippi Squirrel Revival
EXTD=
EXTT0=
EXTT1=
EXTT2=
EXTT3=
EXTT4=
EXTT5=
EXTT6=
EXTT7=
EXTT8=
EXTT9=
EXTT10=
EXTT11=
EXTT12=
EXTT13=
PLAYORDER=
